<svg width="776" height="163" viewBox="0 0 776 163" fill="none" xmlns="http://www.w3.org/2000/svg">
<path d="M136.384 141.26H187.892L155.502 64.946L121.058 146H116.002L155.502 52.78L195.002 146H136.384V141.26ZM227.88 141.26H288.868V60.996L253.318 96.546L217.768 60.996V146L213.028 145.842V54.36H217.768L253.318 89.91L288.868 54.36H293.608V146L227.88 145.842V141.26ZM346.41 146H323.658V54.36H341.038C353.468 54.36 362.842 56.5193 369.162 60.838C375.588 65.1567 378.8 71.0553 378.8 78.534C378.8 87.4873 374.85 93.9653 366.95 97.968C372.744 99.9693 377.062 102.971 379.906 106.974C382.75 110.871 384.172 115.401 384.172 120.562C384.172 128.146 381.012 134.308 374.692 139.048C368.478 143.683 359.05 146 346.41 146ZM346.41 141.26C355.68 141.26 363.474 139.575 369.794 136.204C376.22 132.833 379.432 127.619 379.432 120.562C379.432 117.297 378.221 113.768 375.798 109.976C373.376 106.079 369.636 103.235 364.58 101.444L356.364 98.6L363.948 94.65C366.582 93.2807 368.899 91.2267 370.9 88.488C373.007 85.644 374.06 82.326 374.06 78.534C374.06 71.898 370.9 67 364.58 63.84C358.26 60.68 350.413 59.1 341.038 59.1H328.398V141.26H346.41ZM446.919 100.022L468.407 146H463.193L441.073 98.6C441.284 98.4947 442.179 98.0733 443.759 97.336C445.445 96.4933 446.603 95.914 447.235 95.598C447.867 95.1767 448.921 94.492 450.395 93.544C451.87 92.596 452.976 91.7007 453.713 90.858C454.451 89.91 455.241 88.8567 456.083 87.698C457.031 86.434 457.716 85.0647 458.137 83.59C458.559 82.01 458.769 80.3247 458.769 78.534C458.769 71.898 455.609 67 449.289 63.84C442.969 60.68 435.122 59.1 425.747 59.1H413.107V146H408.367V54.36H425.747C438.177 54.36 447.551 56.5193 453.871 60.838C460.297 65.1567 463.509 71.0553 463.509 78.534C463.509 83.3793 461.877 87.698 458.611 91.49C455.346 95.1767 451.449 98.0207 446.919 100.022ZM535.972 59.258C532.391 58.0993 527.967 57.52 522.7 57.52C517.434 57.52 513.01 58.0993 509.428 59.258C505.847 60.3113 502.529 62.3653 499.474 65.42C496.525 68.3693 494.313 72.7407 492.838 78.534C491.364 84.222 490.626 91.4373 490.626 100.18C490.626 108.923 491.364 116.191 492.838 121.984C494.313 127.672 496.525 132.043 499.474 135.098C502.529 138.047 505.847 140.101 509.428 141.26C513.01 142.313 517.434 142.84 522.7 142.84C527.967 142.84 532.391 142.313 535.972 141.26C539.554 140.101 542.819 138.047 545.768 135.098C548.823 132.043 551.088 127.672 552.562 121.984C554.037 116.191 554.774 108.923 554.774 100.18C554.774 91.4373 554.037 84.222 552.562 78.534C551.088 72.7407 548.823 68.3693 545.768 65.42C542.819 62.3653 539.554 60.3113 535.972 59.258ZM550.982 136.362C545.294 143.841 535.867 147.58 522.7 147.58C509.534 147.58 500.106 143.841 494.418 136.362C488.73 128.883 485.886 116.823 485.886 100.18C485.886 83.5373 488.73 71.4767 494.418 63.998C500.106 56.5193 509.534 52.78 522.7 52.78C535.867 52.78 545.294 56.5193 550.982 63.998C556.67 71.4767 559.514 83.5373 559.514 100.18C559.514 116.823 556.67 128.883 550.982 136.362ZM609.829 52.464C622.89 52.464 632.159 55.3607 637.637 61.154L634.477 64.63C629.421 59.6793 621.415 57.204 610.461 57.204C594.029 57.204 585.813 63.7347 585.813 76.796C585.813 81.852 587.814 85.9073 591.817 88.962C595.819 91.9113 600.665 94.176 606.353 95.756C612.146 97.336 617.887 99.0213 623.575 100.812C629.368 102.497 634.266 105.289 638.269 109.186C642.271 112.978 644.273 117.981 644.273 124.196C644.273 131.464 641.271 137.257 635.267 141.576C629.263 145.895 620.573 148.054 609.197 148.054C603.614 148.054 598.084 147.317 592.607 145.842C587.235 144.367 583.232 142.208 580.599 139.364L583.759 135.888C589.131 140.839 597.399 143.314 608.565 143.314C618.782 143.314 626.471 141.418 631.633 137.626C636.899 133.834 639.533 129.41 639.533 124.354C639.533 119.087 637.531 114.821 633.529 111.556C629.526 108.291 624.628 105.868 618.835 104.288C613.147 102.603 607.406 100.917 601.613 99.232C595.925 97.4413 591.079 94.7027 587.077 91.016C583.074 87.3293 581.073 82.484 581.073 76.48C581.073 68.3693 583.759 62.3653 589.131 58.468C594.608 54.4653 601.507 52.464 609.829 52.464ZM667.278 54.36H672.018V146H667.278V54.36ZM710.368 141.26H761.876L729.486 64.946L695.042 146H689.986L729.486 52.78L768.986 146H710.368V141.26Z" fill="white"/>
<path d="M42.9752 80C42.5768 81.5326 42.1721 83.063 41.761 84.5911C39.0422 94.6999 36.0482 104.712 32.7791 114.627L31 112.114C34.7633 112.038 38.5267 112 42.29 112C46.1934 112 50.0967 112.041 54 112.122L56.5161 112.071L55.7918 114.561C52.5097 124.324 48.9565 134.003 45.1323 143.596C44.5464 145.066 43.9541 146.534 43.3554 148C43.6996 146.454 44.0501 144.911 44.4071 143.369C46.7364 133.307 49.3368 123.331 52.2082 113.439L54 115.878C50.0967 115.959 46.1934 116 42.29 116C38.5267 116 34.7633 115.962 31 115.886L28.3002 115.834L29.2209 113.373C32.8868 103.598 36.8279 93.92 41.0442 84.3386C41.6816 82.8902 42.3253 81.444 42.9752 80Z" fill="white"/>
<mask id="path-3-inside-1_2_4" fill="white">
<path d="M72 37C75.3137 37 78 39.6863 78 43C78 46.3137 75.3137 49 72 49H69.3223L59.5098 72.3955C73.329 75.4136 86.9343 82.7541 86.9346 98.624C86.9346 114.571 73.1956 138.12 59.3076 151H62C65.3137 151 68 153.686 68 157C68 160.314 65.3137 163 62 163H24C20.6863 163 18 160.314 18 157C18 153.686 20.6863 151 24 151H25.4873C12.4099 138.12 0 114.571 0 98.624C0.000250489 82.1197 13.2911 74.839 26.8594 72.0527L17.1904 49H14C10.6863 49 8 46.3137 8 43C8 39.6863 10.6863 37 14 37H72Z"/>
</mask>
<path d="M72 49V53V49ZM69.3223 49V45H66.6624L65.6336 47.4529L69.3223 49ZM59.5098 72.3955L55.8211 70.8484L53.963 75.2784L58.6563 76.3034L59.5098 72.3955ZM86.9346 98.624H90.9346V98.624L86.9346 98.624ZM59.3076 151L56.5877 148.067L49.1121 155H59.3076V151ZM62 151V147V151ZM24 163V167V163ZM25.4873 151V155H35.2491L28.2941 148.15L25.4873 151ZM0 98.624L-4 98.624V98.624H0ZM26.8594 72.0527L27.664 75.971L32.4299 74.9923L30.5481 70.5056L26.8594 72.0527ZM17.1904 49L20.8791 47.4529L19.8503 45H17.1904V49ZM14 37V33V37ZM72 37V41C73.1046 41 74 41.8954 74 43H78H82C82 37.4772 77.5229 33 72 33V37ZM78 43H74C74 44.1046 73.1046 45 72 45V49V53C77.5229 53 82 48.5228 82 43H78ZM72 49V45H69.3223V49V53H72V49ZM69.3223 49L65.6336 47.4529L55.8211 70.8484L59.5098 72.3955L63.1985 73.9426L73.011 50.5471L69.3223 49ZM59.5098 72.3955L58.6563 76.3034C65.2486 77.7431 71.4222 80.1461 75.8714 83.7862C80.1803 87.3116 82.9345 92.0226 82.9346 98.6241L86.9346 98.624L90.9346 98.624C90.9344 89.3555 86.8858 82.4613 80.9372 77.5945C75.1289 72.8424 67.5902 70.066 60.3632 68.4876L59.5098 72.3955ZM86.9346 98.624H82.9346C82.9346 105.623 79.8553 114.8 74.8166 124.048C69.8223 133.215 63.1701 141.963 56.5877 148.067L59.3076 151L62.0276 153.933C69.3331 147.158 76.4944 137.69 81.8416 127.876C87.1443 118.143 90.9346 107.572 90.9346 98.624H86.9346ZM59.3076 151V155H62V151V147H59.3076V151ZM62 151V155C63.1046 155 64 155.895 64 157H68H72C72 151.477 67.5229 147 62 147V151ZM68 157H64C64 158.105 63.1046 159 62 159V163V167C67.5229 167 72 162.523 72 157H68ZM62 163V159H24V163V167H62V163ZM24 163V159C22.8954 159 22 158.105 22 157H18H14C14 162.523 18.4772 167 24 167V163ZM18 157H22C22 155.895 22.8954 155 24 155V151V147C18.4772 147 14 151.477 14 157H18ZM24 151V155H25.4873V151V147H24V151ZM25.4873 151L28.2941 148.15C22.1247 142.074 15.9964 133.347 11.4186 124.176C6.80959 114.942 4 105.713 4 98.624H0H-4C-4 107.482 -0.604639 118.001 4.26069 127.749C9.15712 137.558 15.7726 147.046 22.6805 153.85L25.4873 151ZM0 98.624L4 98.6241C4.00011 91.6158 6.75192 86.7665 10.9201 83.2522C15.2328 79.616 21.2257 77.2931 27.664 75.971L26.8594 72.0527L26.0548 68.1345C18.9247 69.5986 11.4881 72.3092 5.76329 77.136C-0.106133 82.0847 -3.99986 89.1279 -4 98.624L0 98.624ZM26.8594 72.0527L30.5481 70.5056L20.8791 47.4529L17.1904 49L13.5017 50.5471L23.1707 73.5999L26.8594 72.0527ZM17.1904 49V45H14V49V53H17.1904V49ZM14 49V45C12.8954 45 12 44.1046 12 43H8H4C4 48.5228 8.47715 53 14 53V49ZM8 43H12C12 41.8954 12.8954 41 14 41V37V33C8.47715 33 4 37.4772 4 43H8ZM14 37V41H72V37V33H14V37Z" fill="white" mask="url(#path-3-inside-1_2_4)"/>
</svg>
